# xmcd
# Track frame offsets:
# 150
# 15115
# 29657
# 45623
# 63527
# 76617
# 94223
# 107679
# 125424
# 139080
# 154870
# 169780
#
# Disc length: 2413 seconds
# Revision: 0
# Processed by: cddbd v1.5.2PL0 Copyright (c) Steve Scherf et al.
# Submitted via: VisiTrax 2.10.2.252 - For more info visit www.synapsa.com
#
DISCID=91096b0c
DTITLE=Calaisa - Calaisa
DYEAR=2006
DGENRE=Country
TTITLE0=Hey girl
TTITLE1=You are mine
TTITLE2=Sister in arms
TTITLE3=Dream
TTITLE4=Never looking back
TTITLE5=I did my best
TTITLE6=Still
TTITLE7=Ready for the storm
TTITLE8=Sunday paper
TTITLE9=Stop along the way
TTITLE10=Without you
TTITLE11=Röda Walters special
EXTD=
EXTT0=
EXTT1=
EXTT2=
EXTT3=
EXTT4=
EXTT5=
EXTT6=
EXTT7=
EXTT8=
EXTT9=
EXTT10=
EXTT11=
PLAYORDER=
